Coordinates
version=1
nRows=10
nColumns=34
inDegrees=yes

Units are S.I. units (second, meters, Newtons, ...)
If the header above contains a line with 'inDegrees', this indicates whether rotational values are in degrees (yes) or radians (no).

endheader
time	pelvis_tilt	pelvis_list	pelvis_rotation	pelvis_tx	pelvis_ty	pelvis_tz	hip_flexion_r	hip_adduction_r	hip_rotation_r	knee_angle_r	ankle_angle_r	subtalar_angle_r	mtp_angle_r	hip_flexion_l	hip_adduction_l	hip_rotation_l	knee_angle_l	ankle_angle_l	subtalar_angle_l	mtp_angle_l	lumbar_extension	lumbar_bending	lumbar_rotation	arm_flex_r	arm_add_r	arm_rot_r	elbow_flex_r	pro_sup_r	arm_flex_l	arm_add_l	arm_rot_l	elbow_flex_l	pro_sup_l
      1.31666670	      7.05583856	      2.55868229	    -23.06565863	      0.03493992	      1.01042696	     -0.02793681	     -8.43695867	     -6.06237211	     -0.92648436	      6.63959825	      9.64281912	     -0.70253231	      0.00000000	     -5.67550338	     -5.29175998	      0.17248480	      9.20151180	     10.04843671	     -0.40840392	      0.00000000	     -8.03602720	     -0.27053264	      1.66691428	     15.04961844	    -16.72300732	     24.56220246	     24.25235685	    117.51638529	     11.88643549	    -17.59123117	     20.72815620	     29.20024761	    118.10484899
      1.33333330	      7.10800269	      2.51802135	    -23.06111467	      0.03531330	      1.01050018	     -0.02803543	     -8.44356200	     -6.05570860	     -0.89845267	      6.82227395	      9.59895449	     -0.70617877	      0.00000000	     -5.71275200	     -5.31186748	      0.17065443	      9.31949294	     10.04358028	     -0.44006512	      0.00000000	     -7.92309590	     -0.28753822	      1.59332928	     14.79256086	    -16.43800209	     24.52639318	     24.07125594	    117.55214599	     11.55190602	    -17.42080468	     20.74752907	     28.90698386	    118.13103019
      1.35000000	      6.98361038	      2.54994787	    -23.05740427	      0.03553271	      1.01029434	     -0.02814356	     -8.31986502	     -6.04667551	     -0.93209760	      6.78974638	      9.63153563	     -0.75635297	      0.00000000	     -5.63687379	     -5.31733247	      0.14423797	      9.20839547	     10.09002338	     -0.49263636	      0.00000000	     -7.62239474	     -0.30687127	      1.47403220	     14.63091666	    -15.95521276	     24.19325823	     23.57537569	    117.63989274	     11.32425167	    -17.00949400	     20.57704363	     28.27642352	    118.18884795
      1.36666670	      7.07649619	      2.49355040	    -23.05986271	      0.03576124	      1.01039600	     -0.02823724	     -8.39151420	     -6.04854528	     -0.90130599	      6.91224490	      9.58881950	     -0.73516799	      0.00000000	     -5.69549300	     -5.33185385	      0.19722153	      9.35324706	     10.05361524	     -0.47437464	      0.00000000	     -7.60873001	     -0.35272964	      1.49597542	     14.33205913	    -15.59545555	     24.17250160	     23.52320164	    117.66579968	     11.04499885	    -16.66307854	     20.58947993	     28.19625403	    118.20719216
      1.38333330	      7.11227772	      2.47189556	    -23.07294848	      0.03681340	      1.01034934	     -0.02788082	     -8.64500862	     -6.03833956	     -0.93412743	      6.64264942	      9.61843407	     -0.68854920	      0.00000000	     -5.94158430	     -5.32856015	      0.14193534	      9.12594041	     10.14643568	     -0.51108572	      0.00000000	     -7.34007345	     -0.39640719	      1.44156940	     13.93185133	    -15.03691981	     23.78931836	     23.44459650	    117.71936321	     10.59454995	    -16.12633462	     20.29555713	     27.82968419	    118.22788150
      1.40000000	      7.23697585	      2.39559355	    -23.09734638	      0.03760059	      1.01045154	     -0.02763309	     -8.81688934	     -6.02494391	     -0.90854498	      6.72754243	      9.56718750	     -0.65079367	      0.00000000	     -6.10805263	     -5.34839368	      0.19483841	      9.24411120	     10.10055952	     -0.47645214	      0.00000000	     -7.29244005	     -0.43346228	      1.44139461	     13.52727737	    -14.52946475	     23.75859935	     23.48513827	    117.74442360	     10.17715617	    -15.65812234	     20.28058221	     27.73335124	    118.23981017
      1.41666670	      7.30219357	      2.33657117	    -23.09800896	      0.03951971	      1.01040849	     -0.02694074	     -9.32086630	     -5.97543455	     -0.96521279	      6.18612045	      9.59134021	     -0.54473012	      0.00000000	     -6.60945587	     -5.36552073	      0.13718569	      8.72646433	     10.21091853	     -0.44392916	      0.00000000	     -6.95308202	     -0.45071013	      1.33982228	     12.87686626	    -13.90870926	     23.36812852	     23.67364816	    117.79715849	      9.55136358	    -14.99389131	     19.86659600	     27.35223028	    118.23180063
      1.43333330	      7.69191993	      2.20646049	    -23.09325789	      0.04081885	      1.01089187	     -0.02654775	    -10.13397687	     -6.00187804	     -0.91794844	      5.68580824	      9.36528361	     -0.29282492	      0.00000000	     -7.35749133	     -5.30987018	      0.29065571	      8.33592576	     10.08251159	     -0.19884482	      0.00000000	     -7.16117137	     -0.54084974	      1.37181742	     12.19259564	    -13.28909647	     22.45903679	     24.02420131	    117.94618547	      9.13982581	    -14.18753036	     18.87373668	     27.07144222	    118.22691994
      1.45000000	      7.80825788	      2.14967612	    -23.11206750	      0.04157160	      1.01088665	     -0.02627837	    -10.28072160	     -5.99695198	     -0.94570021	      5.78773715	      9.40198154	     -0.34245594	      0.00000000	     -7.50669645	     -5.32054467	      0.26042690	      8.45617167	     10.11264155	     -0.25183613	      0.00000000	     -7.14633391	     -0.56230373	      1.36635501	     11.78012908	    -12.69326441	     22.49894234	     24.06843989	    117.98530749	      8.74940949	    -13.69215451	     18.90902603	     27.03583993	    118.24893835
      1.46666670	      7.91861385	      2.10040417	    -23.13087949	      0.04214187	      1.01088661	     -0.02595234	    -10.46065767	     -5.97878329	     -0.93663856	      5.77364973	      9.47162305	     -0.35599269	      0.00000000	     -7.67683836	     -5.32323556	      0.24739607	      8.49433587	     10.19029328	     -0.29331318	      0.00000000	     -7.12155157	     -0.59835757	      1.34612388	     11.30292397	    -12.12211453	     22.50926040	     24.11342225	    118.02470045	      8.33338788	    -13.20933472	     18.88423944	     26.94646446	    118.26270163
